<svg width="32" height="32" viewBox="0 0 32 32" fill="none" xmlns="http://www.w3.org/2000/svg">
<path d="M3.33398 3.66669C3.33398 3.40147 3.22863 3.14712 3.04109 2.95958C2.85355 2.77204 2.5992 2.66669 2.33398 2.66669C2.06877 2.66669 1.81441 2.77204 1.62688 2.95958C1.43934 3.14712 1.33398 3.40147 1.33398 3.66669V28.3334C1.33398 28.8854 1.78198 29.3334 2.33398 29.3334H26.6673C26.9325 29.3334 27.1869 29.228 27.3744 29.0405C27.562 28.8529 27.6673 28.5986 27.6673 28.3334C27.6673 28.0681 27.562 27.8138 27.3744 27.6262C27.1869 27.4387 26.9325 27.3334 26.6673 27.3334H3.33398V3.66669Z" fill="#4F494B"/>
<path d="M29.7062 10.3733C29.8829 10.1837 29.979 9.93302 29.9745 9.67395C29.9699 9.41488 29.8649 9.1677 29.6817 8.98448C29.4985 8.80127 29.2513 8.69632 28.9922 8.69175C28.7332 8.68717 28.4825 8.78334 28.2929 8.95998L20.6662 16.5866L15.7062 11.6266C15.5187 11.4394 15.2646 11.3342 14.9996 11.3342C14.7346 11.3342 14.4804 11.4394 14.2929 11.6266L6.29289 19.6266C6.19464 19.7182 6.11583 19.8286 6.06118 19.9513C6.00652 20.0739 5.97713 20.2063 5.97477 20.3406C5.9724 20.4749 5.9971 20.6083 6.04739 20.7328C6.09768 20.8573 6.17254 20.9704 6.2675 21.0654C6.36246 21.1603 6.47557 21.2352 6.60009 21.2855C6.72461 21.3358 6.85798 21.3605 6.99225 21.3581C7.12652 21.3557 7.25894 21.3263 7.3816 21.2717C7.50427 21.217 7.61467 21.1382 7.70622 21.04L14.9996 13.7466L19.9596 18.7066C20.1471 18.8939 20.4012 18.9991 20.6662 18.9991C20.9312 18.9991 21.1854 18.8939 21.3729 18.7066L29.7062 10.3733Z" fill="#4F494B"/>
</svg>
