<svg width="32" height="32" viewBox="0 0 32 32" fill="none" xmlns="http://www.w3.org/2000/svg">
<path fill-rule="evenodd" clip-rule="evenodd" d="M9.52841 9.28799C8.50814 10.2935 7.72837 11.5166 7.24738 12.8659C6.76639 14.2153 6.59664 15.6558 6.75081 17.08C6.79537 17.5022 6.67037 17.9248 6.40332 18.2549C6.13627 18.585 5.74904 18.7954 5.32681 18.84C4.90459 18.8845 4.48195 18.7596 4.15189 18.4925C3.82183 18.2254 3.61137 17.8382 3.56681 17.416C3.36246 15.5136 3.59044 13.5896 4.23375 11.7877C4.87706 9.98578 5.91908 8.35243 7.28201 7.00959C12.2996 2.06239 20.386 2.14559 25.3444 7.17279C30.3044 12.2016 30.274 20.2896 25.258 25.2368C22.9358 27.5311 19.818 28.8412 16.554 28.8944C15.3204 28.9161 14.0902 28.7598 12.9012 28.4304C12.694 28.3787 12.4993 28.2861 12.3284 28.158C12.1576 28.0298 12.0142 27.8688 11.9065 27.6844C11.7989 27.5 11.7293 27.2959 11.7018 27.0841C11.6743 26.8723 11.6894 26.6572 11.7463 26.4514C11.8033 26.2456 11.9008 26.0533 12.0332 25.8858C12.1656 25.7182 12.3303 25.5789 12.5174 25.476C12.7045 25.3731 12.9103 25.3087 13.1227 25.2866C13.335 25.2644 13.5497 25.2851 13.754 25.3472C14.6466 25.5946 15.5703 25.7116 16.4964 25.6944C18.9391 25.6559 21.2725 24.6757 23.01 22.9584C26.7588 19.2624 26.794 13.2 23.066 9.42079C19.338 5.63999 13.2772 5.59199 9.53001 9.28799H9.52841Z" fill="#4F494B"/>
<path fill-rule="evenodd" clip-rule="evenodd" d="M6.34817 18.712C6.20846 18.869 6.03919 18.9969 5.85003 19.0884C5.66088 19.18 5.45554 19.2334 5.24575 19.2456C5.03595 19.2577 4.82582 19.2285 4.62733 19.1594C4.42885 19.0904 4.24592 18.9829 4.08897 18.8432L1.33697 16.3952C1.01998 16.113 0.82808 15.7164 0.803475 15.2928C0.77887 14.8691 0.923581 14.453 1.20577 14.136C1.48796 13.819 1.88452 13.6271 2.3082 13.6025C2.73188 13.5779 3.14798 13.7226 3.46497 14.0048L6.21697 16.4528C6.37395 16.5925 6.50187 16.7618 6.59342 16.9509C6.68497 17.1401 6.73836 17.3454 6.75054 17.5552C6.76273 17.765 6.73346 17.9751 6.66442 18.1736C6.59538 18.3721 6.48792 18.555 6.34817 18.712Z" fill="#4F494B"/>
<path fill-rule="evenodd" clip-rule="evenodd" d="M3.87273 18.56C3.9988 18.7281 4.15675 18.8697 4.33754 18.9767C4.51834 19.0838 4.71846 19.1542 4.92646 19.1839C5.13446 19.2136 5.34628 19.2021 5.54982 19.1499C5.75337 19.0978 5.94464 19.006 6.11273 18.88L9.31274 16.48C9.65221 16.2254 9.87664 15.8463 9.93665 15.4262C9.99667 15.0062 9.88734 14.5795 9.63273 14.24C9.37813 13.9005 8.99909 13.6761 8.57901 13.6161C8.15893 13.556 7.73221 13.6654 7.39273 13.92L4.19273 16.32C4.02464 16.446 3.88303 16.604 3.77598 16.7848C3.66892 16.9656 3.59853 17.1657 3.56882 17.3737C3.5391 17.5817 3.55065 17.7935 3.60279 17.9971C3.65494 18.2006 3.74667 18.3919 3.87273 18.56ZM16.0007 9.59998C16.4251 9.59998 16.832 9.76855 17.1321 10.0686C17.4322 10.3687 17.6007 10.7756 17.6007 11.2V16.8C17.6007 17.2243 17.4322 17.6313 17.1321 17.9313C16.832 18.2314 16.4251 18.4 16.0007 18.4C15.5764 18.4 15.1694 18.2314 14.8694 17.9313C14.5693 17.6313 14.4007 17.2243 14.4007 16.8V11.2C14.4007 10.7756 14.5693 10.3687 14.8694 10.0686C15.1694 9.76855 15.5764 9.59998 16.0007 9.59998Z" fill="#4F494B"/>
<path fill-rule="evenodd" clip-rule="evenodd" d="M22.4004 16.8C22.4004 17.2244 22.2318 17.6313 21.9318 17.9314C21.6317 18.2314 21.2247 18.4 20.8004 18.4H16.0004C15.576 18.4 15.1691 18.2314 14.869 17.9314C14.569 17.6313 14.4004 17.2244 14.4004 16.8C14.4004 16.3757 14.569 15.9687 14.869 15.6686C15.1691 15.3686 15.576 15.2 16.0004 15.2H20.8004C21.2247 15.2 21.6317 15.3686 21.9318 15.6686C22.2318 15.9687 22.4004 16.3757 22.4004 16.8Z" fill="#4F494B"/>
</svg>
