<svg width="160" height="160" viewBox="0 0 160 160" fill="none" xmlns="http://www.w3.org/2000/svg">
<path fill-rule="evenodd" clip-rule="evenodd" d="M160 80C160 116.261 135.875 146.888 102.8 156.704V153.64C99.28 153.64 96.7733 152.84 95.28 151.24C93.8933 149.64 93.2 146.6 93.2 142.12V72.36C89.5733 73.1067 85.5733 73.6933 81.2 74.12C76.9333 74.44 72.4 74.6 67.6 74.6C64.4 74.6 61.0933 74.44 57.68 74.12V77.48C61.3067 77.48 63.8133 78.6533 65.2 81C66.5867 83.24 67.28 86.76 67.28 91.56V142.12C67.28 146.6 66.5333 149.64 65.04 151.24C63.6533 152.84 61.2 153.64 57.68 153.64V156.845C24.3587 147.183 0 116.436 0 80C0 35.8172 35.8172 0 80 0C124.183 0 160 35.8172 160 80ZM93.36 156.68C96.9833 156.773 99.8378 156.866 101.924 156.959C94.9566 158.94 87.6021 160 80 160C72.4232 160 65.0924 158.947 58.1461 156.979C60.3693 156.879 63.5206 156.779 67.6 156.68C72.08 156.467 76.4533 156.36 80.72 156.36C84.9867 156.36 89.2 156.467 93.36 156.68ZM66.5953 37.0933C69.1723 32.6299 77.5461 27.4579 91.7196 21.5767C93.7131 36.7919 93.421 46.6299 90.844 51.0933C88.9874 54.3089 85.9296 56.6553 82.3431 57.6163C78.7566 58.5773 74.9352 58.0742 71.7196 56.2177C68.504 54.3612 66.1577 51.3033 65.1967 47.7168C64.2356 44.1303 64.7387 40.3089 66.5953 37.0933Z" fill="#04D99D"/>
</svg>
